<?xml version="1.0" encoding="utf-8"?>
<!-- Svg Vector Icons : http://www.onlinewebfonts.com/icon -->
<!DOCTYPE svg PUBLIC "-//W3C//DTD SVG 1.1//EN" "http://www.w3.org/Graphics/SVG/1.1/DTD/svg11.dtd">
<svg version="1.1" xmlns="http://www.w3.org/2000/svg" xmlns:xlink="http://www.w3.org/1999/xlink" x="0px" y="0px" viewBox="0 0 1000 1000" enable-background="new 0 0 1000 1000" xml:space="preserve">
<metadata> Svg Vector Icons : http://www.onlinewebfonts.com/icon </metadata>
<g><g transform="translate(0.000000,511.000000) scale(0.100000,-0.100000)"><path d="M5609,2790.4L3394.3,571.8l-90.4-186.7c-238.6-496.4-211.7-1098.7,71.2-1547l50-78.9L2353.3-2312.6c-1016-1016-1073.7-1069.8-1108.3-1041c-59.7,44.2-273.2,105.8-373.3,105.8c-396.4,0-771.6-375.2-771.6-769.7c0-394.5,375.2-769.7,769.7-769.7s769.7,375.2,769.7,771.6c0,100.1-61.6,313.7-105.8,373.3c-28.9,34.6,25,92.3,1041,1108.3l1071.8,1071.8l117.4-63.5c340.6-186.7,850.5-198.2,1281.5-26.9c340.6,136.6,259.8,61.6,2643.9,2443.8L9900,3098.3l-50,59.7c-27,34.6-77,84.7-111.6,111.6l-59.7,50L7473.6,1116.4C6259.4-95.9,5228-1113.8,5179.9-1144.6c-248.2-165.5-494.5-242.4-769.7-240.5c-454.1,1.9-769.7,238.6-927.5,694.6c-59.6,171.3-63.5,552.2-7.7,713.9c102,298.2-15.4,171.3,2362.9,2551.5c2055,2057,2212.8,2218.6,2187.8,2253.3c-26.9,38.5-179,178.9-192.4,178.9C7827.6,5007.1,6829,4008.5,5609,2790.4z M1019.8-3578.7c175.1-44.3,311.7-234.8,311.7-438.7c0-261.7-200.1-461.8-461.8-461.8s-461.8,200.1-461.8,461.8c0,132.8,42.3,236.7,134.7,329C665.7-3565.2,821.6-3528.7,1019.8-3578.7z"/></g></g>
</svg>