<?xml version="1.0" encoding="utf-8"?>
<!-- Svg Vector Icons : http://www.onlinewebfonts.com/icon -->
<!DOCTYPE svg PUBLIC "-//W3C//DTD SVG 1.1//EN" "http://www.w3.org/Graphics/SVG/1.1/DTD/svg11.dtd">
<svg version="1.1" xmlns="http://www.w3.org/2000/svg" xmlns:xlink="http://www.w3.org/1999/xlink" x="0px" y="0px" viewBox="0 0 1000 1000" enable-background="new 0 0 1000 1000" xml:space="preserve">
<metadata> Svg Vector Icons : http://www.onlinewebfonts.com/icon </metadata>
<g><g transform="translate(0.000000,431.000000) scale(0.100000,-0.100000)"><path d="M4386.3,3371.9c-11.5-72.9-508.2-3904.6-510.1-3946.8c-5.8-92.1-44.1,187.9-134.2,983.8l-103.6,895.6h-193.7H3249l-9.6-80.6c-7.7-46-65.2-705.7-132.3-1467.1c-65.2-761.4-124.7-1380.8-130.4-1375.1c-3.8,5.8-44.1,303-88.2,661.7c-44.1,360.6-84.4,655.9-88.2,661.7c-3.8,3.8-94,1.9-199.4-5.8l-193.7-11.5l-130.4-538.9c-71-297.3-136.2-550.4-143.8-563.8c-5.7-13.4-34.5,63.3-63.3,172.6c-28.8,109.3-71,264.6-92.1,347.1l-40.3,147.7h-176.4h-174.5l-149.6-287.7l-149.6-287.7h-187.9c-103.6,0-370.1-5.8-592.6-13.4L100-1347.8v-180.3v-178.3h677h677l120.8,134.2c65.2,74.8,126.6,134.2,132.3,134.2c7.7,0,65.2-214.8,128.5-479.4l113.1-479.5h195.6c170.7,0,197.5,3.8,207.1,34.5c5.8,17.3,53.7,216.7,107.4,441.1c55.6,224.4,103.6,406.6,107.4,402.7c5.7-5.8,257-2253.4,257-2299.4c0-21.1,397-23,408.5-3.8c5.8,9.6,59.5,655.9,120.8,1440.3c61.4,784.4,118.9,1409.6,126.6,1390.4c5.8-19.2,44.1-335.6,80.5-705.8c38.4-368.2,74.8-700,80.5-732.6l9.6-63.3h199.5h197.5l11.5,51.8c5.8,30.7,111.2,843.8,234,1808.5c122.7,964.7,226.3,1768.2,234,1783.6c11.5,32.6,1.9,168.8,241.6-3202.7c101.7-1407.7,187.9-2606.3,195.6-2660l9.6-101.6h207.1h207.1l11.5,82.5c5.7,44.1,80.5,826.6,168.8,1739.5c86.3,912.9,163,1664.6,170.7,1674.2c5.7,7.7,55.6-230.1,107.4-527.4l95.9-542.7l193.7-5.8c172.6-3.8,195.6-1.9,205.2,28.8c7.7,26.8,161.1,661.7,212.9,886c5.8,24.9,15.4,40.3,21.1,36.4c5.8-7.7,161.1-749.9,161.1-776.7c0-3.8,78.6-3.8,174.5-1.9l174.5,5.7l86.3,220.5c46,120.8,92.1,226.3,99.7,235.9c7.7,7.7,113.1-427.7,234-968.5l220.5-983.8l220.5-5.8l220.5-5.8l168.8,964.7c92.1,531.2,172.6,983.8,178.3,1008.8l9.6,42.2h688.5H9900v182.2v182.2h-861.1c-671.2,0-863-5.8-868.8-23c-5.8-13.4-59.5-299.2-122.7-632.9c-61.4-335.6-117-609.9-122.7-609.9s-90.1,356.7-189.9,792.1c-99.7,433.4-187.9,818.9-197.5,851.5L7520-901h-172.6h-172.6l-94-195.6c-53.7-117-95.9-186-101.6-168.8c-11.5,30.7-166.9,907.1-166.9,939.7c0,13.4-71,19.2-205.2,15.3l-205.2-5.7l-113.1-456.4c-63.3-251.3-118.9-452.6-122.7-446.8c-3.8,3.8-63.3,347.1-130.4,761.4c-69,416.2-128.5,784.4-134.2,818.9l-11.5,61.4h-180.3c-176.4,0-182.2-1.9-182.2-42.2c-1.9-90.1-322.2-2742.5-333.7-2752.1c-5.8-7.7-11.5,13.4-11.5,44.1c0,30.7-95.9,1327.1-211,2878.6c-117,1553.4-211,2838.4-211,2853.7c0,23-32.6,28.8-182.2,28.8h-180.3L4386.3,3371.9z"/></g></g>
</svg>