<?xml version="1.0" encoding="utf-8"?>
<!-- Svg Vector Icons : http://www.onlinewebfonts.com/icon -->
<!DOCTYPE svg PUBLIC "-//W3C//DTD SVG 1.1//EN" "http://www.w3.org/Graphics/SVG/1.1/DTD/svg11.dtd">
<svg version="1.1" xmlns="http://www.w3.org/2000/svg" xmlns:xlink="http://www.w3.org/1999/xlink" x="0px" y="0px" viewBox="0 0 1000 1000" enable-background="new 0 0 1000 1000" xml:space="preserve">
<metadata> Svg Vector Icons : http://www.onlinewebfonts.com/icon </metadata>
<g><g transform="translate(0.000000,511.000000) scale(0.100000,-0.100000)"><path d="M4172.5,4986.7c-209-34.8-545.8-155.6-731.5-262.4c-174.2-97.5-429.6-288-510.9-378.6c-27.9-30.2-318.2-1214.6-908-3701.9l-868.6-3655.4l-146.3-14c-213.7-20.9-232.2-51.1-232.2-378.5c0-332.1,25.5-415.7,160.2-550.4c137-139.3,216-160.2,601.5-160.2h306.6V-4254c0-313.5,211.3-534.2,510.9-534.2c304.2,0,508.6,213.7,510.9,529.5v144h1695.3h1695.3v-113.8c0-492.3,555.1-745.5,889.5-406.4c102.2,99.9,139.3,190.4,150.9,362.3l11.6,157.9h301.9c339.1,0,441.2,23.2,562,120.8c153.3,127.7,185.8,220.6,185.8,559.7c0,299.6,0,299.6-65,355.3c-51.1,44.1-92.9,55.7-185.8,55.7h-123.1L7537.7-1135C7291.5-99.3,7091.8,762.4,7091.8,774c0,13.9,229.9,253.1,510.9,534.1l508.6,508.6l111.5-39.5c181.1-62.7,287.9-69.7,445.9-30.2c664.2,169.5,759.4,1054.4,146.3,1353.9c-113.8,55.7-160.3,65-318.2,62.7c-301.9-2.3-510.9-132.4-641-394.8c-62.7-127.7-74.3-176.5-74.3-318.2c0-118.4,13.9-199.7,46.5-274l48.8-106.8l-438.9-438.9c-239.2-239.2-441.3-432-448.2-427.3c-4.6,7-174.2,701.4-373.9,1542.1c-199.7,843-369.3,1544.4-378.5,1563c-32.5,53.4-290.3,262.4-457.5,366.9c-357.7,225.3-773.3,336.7-1219.2,334.4C4414.1,5007.6,4239.9,4998.3,4172.5,4986.7z M5048.1,4605.9c204.4-51.1,587.5-241.5,743.2-366.9l127.7-104.5l385.5-1621l387.8-1623.3L5598.5-206.1L4502.3-1304.6h-1282c-785,0-1284.3,9.3-1284.3,20.9c0,39.5,1254.1,5329.8,1277.3,5380.9c41.8,102.2,380.9,327.5,654.9,436.6C4200.4,4663.9,4692.8,4694.1,5048.1,4605.9z M8675.6,2768.9c202.1-102.2,250.8-383.2,97.5-564.3c-155.6-185.8-494.7-141.7-599.2,76.6C8018.4,2611,8348.2,2933.8,8675.6,2768.9z M6998.9-410.4c113.8-485.4,209-884.8,209-887.1c0-4.6-499.3-7-1107.8-7H4990l894.1,894.1c490,490,894.1,889.5,898.8,884.8C6785.2,472.1,6882.8,72.6,6998.9-410.4z M7289.2-1673.8c7-13.9,83.6-320.5,171.9-685.1l157.9-664.2H4567.4c-2896,0-3051.6,2.3-3040,41.8c7,20.9,74.3,311.2,153.3,643.3c79,332.1,146.3,622.4,153.3,645.6c11.6,37.1,162.6,39.5,2726.5,39.5C6246.4-1652.9,7279.9-1662.2,7289.2-1673.8z M7997.5-3529.4c0-109.2-9.3-146.3-48.8-181.1c-48.8-41.8-141.7-44.1-3351.2-51.1c-2324.7-2.3-3318.7,2.3-3360.5,20.9c-76.6,30.2-113.8,109.2-113.8,241.5v104.5h3437.1h3437.1V-3529.4z M2516.7-4228.4c0-97.5-9.3-123.1-60.4-162.6c-81.3-62.7-137-60.4-206.7,9.3c-44.1,41.8-58.1,81.3-58.1,162.6v104.5h162.6h162.6V-4228.4z M6938.5-4235.4c-4.7-92.9-16.3-132.4-55.8-162.6c-125.4-102.2-255.5-16.3-255.5,167.2v116.1h157.9h157.9L6938.5-4235.4z"/><path d="M4116.8,3528.3c-39.5-30.2-53.4-67.3-53.4-130.1c0-62.7,13.9-99.8,53.4-130.1c48.8-39.5,97.5-44.1,452.9-44.1c387.8,0,401.8,2.3,450.5,53.4c67.4,72,67.4,178.8-2.3,243.8c-51.1,48.8-74.3,51.1-450.5,51.1C4214.4,3572.4,4165.6,3567.8,4116.8,3528.3z"/><path d="M4126.1,2376.4c-25.5-18.6-55.7-60.4-62.7-92.9c-16.3-67.3,34.8-183.5,90.6-206.7c20.9-7,209-13.9,415.7-13.9c348.4,0,383.2,4.6,441.3,48.8c76.7,60.4,83.6,183.5,13.9,253.1c-41.8,41.8-76.6,46.5-448.2,46.5C4260.8,2411.2,4165.6,2404.3,4126.1,2376.4z"/><path d="M4114.5,1210.6c-85.9-97.5-65-234.6,44.1-283.3c32.5-16.3,202-25.5,422.7-25.5c336.7,0,373.9,4.6,429.6,48.8c76.7,60.4,83.6,183.5,13.9,253.1c-44.1,44.1-76.6,46.4-459.8,46.4C4198.1,1250,4144.7,1245.4,4114.5,1210.6z"/><path d="M4119.1,44.7c-39.5-37.2-69.7-90.6-69.7-118.4s30.2-81.3,69.7-118.4l69.7-69.7l397.1,7c385.5,7,397.1,9.3,441.3,62.7c23.2,30.2,44.1,83.6,44.1,118.4s-20.9,88.2-44.1,118.4c-44.1,53.4-55.7,55.7-441.3,62.7l-397.1,7L4119.1,44.7z"/></g></g>
</svg>